PathFileType	4	(X/Y/Z)	C:/Users/beibeiliu/ov580/test_trc/User2\sequence.33_training_dense_left.trc
DataRate	CameraRate	NumFrames	NumMarkers	Units	OrigDataRate	OrigDataStartFrame	OrigNumFrames
120	120	9	19	mm	120	54	424
Frame#	Time	ThumbCMC			ThumbMCP			ThumbIP			ThumbTip			IndexMCP			IndexPIP			IndexTip			MiddleMCP			MiddlePIP			MiddleTip			RingMCP			RingPIP			RingTip			PinkyMCP			PinkyPIP			PinkyTip			BackHand1			BackHand2			BackHand3	
		X0	Y0	Z0	X1	Y1	Z1	X2	Y2	Z2	X3	Y3	Z3	X4	Y4	Z4	X5	Y5	Z5	X6	Y6	Z6	X7	Y7	Z7	X8	Y8	Z8	X9	Y9	Z9	X10	Y10	Z10	X11	Y11	Z11	X12	Y12	Z12	X13	Y13	Z13	X14	Y14	Z14	X15	Y15	Z15	X16	Y16	Z16	X17	Y17	Z17	X18	Y18	Z18	
53	0.441667	-231.78	-59.7284	37.9767	-217.034	-53.6244	4.85481	-198.166	-52.1228	-25.9532	-174.637	-58.8998	-35.2806	-182.293	-106.519	-10.3302	-158.908	-81.93	-15.6895	-169.806	-59.2597	6.79499	-162.621	-110.368	-1.10871	-143.899	-78.531	0.0611918	-165.433	-57.0724	25.5517	-149.369	-106.954	17.6249	-138.491	-78.1668	20.5084	-164.194	-61.0707	37.7797	-142.714	-105.743	39.5039	-143.122	-71.4707	37.984	-169.559	-63.705	54.0822	-196.459	-121.329	66.403	-215.316	-107.651	89.3696	-229.725	-102.21	48.6546	
54	0.45	-229.4	-60.617	36.4322	-216.491	-51.5446	9.98648	-197.93	-50.4279	-22.3371	-174.288	-57.023	-33.1322	-180.474	-104.385	-9.05774	-156.934	-77.7905	-12.4008	-169.394	-58.0623	10.5929	-160.11	-111.395	5.30988	-143.577	-77.1505	2.62927	-165.279	-54.8291	26.9134	-146.441	-107.158	24.1112	-136.663	-74.7648	25.5666	-163.852	-61.0201	40.9772	-139.83	-102.318	41.1297	-141.032	-69.9375	41.3053	-168.829	-64.9607	56.2635	-194.873	-120.451	66.088	-212.653	-104.258	92.9691	-227.909	-98.3509	51.8279	
55	0.458333	-227.248	-58.2794	41.2144	-214.658	-49.2422	9.51665	-195.726	-48.943	-17.2723	-172.823	-54.9157	-35.4545	-181.974	-103.005	-6.29984	-157.809	-78.7916	-10.4861	-169.794	-57.5154	15.023	-162.805	-109.374	4.35894	-143.05	-76.4755	2.11417	-159.795	-55.5592	29.4062	-150.254	-107.288	22.942	-137.272	-72.7105	26.0311	-163.04	-59.9188	43.4207	-139.552	-103.816	43.7922	-139.251	-71.4383	41.1559	-168.229	-62.9457	61.9	-196.95	-116.552	65.4223	-215.066	-103.601	89.9089	-230.004	-97.3721	56.4061	
56	0.466667	-227.682	-55.9486	40.2123	-215.115	-45.4552	10.8356	-196.634	-44.2338	-18.8987	-173.504	-50.5061	-33.0708	-182.391	-99.5444	-8.96656	-159.555	-76.3371	-11.7424	-169.316	-55.5416	13.4075	-162.317	-108.13	3.85931	-142.277	-76.4013	6.00113	-162.17	-55.1284	33.3576	-150.839	-106.674	24.3771	-137.558	-73.5738	27.3438	-165.634	-59.5477	44.4784	-144.585	-105.417	44.7311	-138.473	-72.4795	42.3997	-165.642	-60.7258	61.9996	-194.629	-119.725	65.4824	-215.907	-103.597	94.9804	-228.486	-94.445	52.9617	
57	0.475	-227.537	-52.2278	46.2562	-214.069	-43.9203	16.862	-192.903	-45.4082	-13.8683	-172.351	-51.7387	-26.993	-182.273	-96.5795	-8.67166	-158.814	-76.7545	-7.84534	-171.106	-55.2086	17.2784	-163.899	-108.18	5.96417	-142.904	-80.2741	5.64736	-164.198	-54.4472	34.3434	-149.525	-104.432	22.3099	-138.79	-74.6156	25.0393	-162.285	-59.4479	44.1235	-144.259	-105.432	45.7359	-138.792	-69.9684	47.0077	-164.168	-58.349	62.8761	-197.029	-115.873	68.0599	-219.052	-100.978	91.5323	-230.424	-92.7807	57.4089	
58	0.483333	-230.639	-48.069	45.245	-213.999	-42.5238	17.2514	-197.231	-41.4983	-11.9712	-173.76	-52.3959	-28.2339	-187.407	-97.2113	-6.30255	-161.606	-77.6258	-9.22781	-173.187	-53.8678	19.8565	-168.926	-107.73	7.93764	-146.503	-75.2423	8.12834	-166.575	-52.7142	33.8542	-154.258	-107.113	24.4431	-140.607	-75.7117	26.8881	-163.648	-59.5961	44.5349	-145.786	-105.913	45.2168	-141.321	-72.8574	44.382	-168.205	-60.4099	63.0232	-201.796	-114.727	63.422	-218.881	-99.5967	94.5053	-231.491	-92.3117	57.446	
59	0.491667	-232.973	-45.8181	46.4014	-217.036	-41.3354	16.9101	-200.811	-41.8384	-12.9537	-177.987	-53.754	-27.5426	-190.035	-94.5673	-10.6332	-167.367	-71.3135	-11.6847	-173.8	-54.5443	15.1185	-170.506	-106.261	5.0055	-150.827	-77.3937	3.29274	-166.849	-54.6246	33.7257	-155.673	-104.669	21.3404	-146.151	-73.7589	23.5519	-170.102	-58.9737	47.7526	-150.955	-105.644	44.4317	-145.395	-69.377	45.4832	-169.049	-62.453	60.4445	-202.915	-114.313	70.0742	-219.515	-100.239	95.5317	-236.394	-88.7182	56.4137	
60	0.5	-237.373	-46.2691	47.5447	-223.78	-42.7033	17.956	-208.456	-44.7443	-17.7703	-188.918	-55.5622	-29.6104	-200.111	-95.9971	-6.61891	-173.103	-76.1818	-13.2243	-181.031	-53.7423	18.1861	-180.317	-104.709	1.12216	-156.917	-78.4676	0.683016	-174.7	-50.3042	28.8995	-161.582	-105.021	19.2227	-148.39	-74.8116	22.0317	-171.543	-58.4131	41.8822	-155.323	-103.983	39.5379	-147.281	-71.2142	41.3325	-170.907	-59.2537	59.9416	-205.843	-113.753	64.628	-222.03	-96.4325	96.0172	-234.813	-89.717	61.1394	
61	0.508333	-241.25	-47.2851	47.4366	-231.481	-42.0347	16.6488	-219.611	-43.4932	-16.2269	-199.492	-56.4172	-36.1058	-205.039	-98.1395	-5.75352	-179.402	-76.4649	-13.8791	-187.516	-52.346	12.7936	-184.662	-105.163	-0.0196508	-162.585	-76.4754	-0.426556	-178.247	-52.02	26.7798	-165.78	-106.52	19.5396	-154.311	-75.5069	16.3358	-174.328	-59.2133	43.1874	-154.766	-104.162	36.9502	-152.213	-69.9981	36.7399	-176.146	-62.1506	55.457	-206.157	-114.093	65.8569	-220.377	-97.3221	94.5201	-243.099	-87.8656	62.0538	
